<?xml version="1.0" encoding="UTF-8" standalone="no"?>
<svg
   xmlns:dc="http://purl.org/dc/elements/1.1/"
   xmlns:cc="http://creativecommons.org/ns#"
   xmlns:rdf="http://www.w3.org/1999/02/22-rdf-syntax-ns#"
   xmlns:svg="http://www.w3.org/2000/svg"
   xmlns="http://www.w3.org/2000/svg"
   xmlns:sodipodi="http://sodipodi.sourceforge.net/DTD/sodipodi-0.dtd"
   xmlns:inkscape="http://www.inkscape.org/namespaces/inkscape"
   height="64"
   width="64"
   version="1.1"
   viewBox="0 0 64.000001 64.000001"
   id="svg2"
   inkscape:version="0.91 r13725"
   sodipodi:docname="icon.svg"
   inkscape:export-filename="/home/stsav012/Projects/QtCatSearch/icon1024.png"
   inkscape:export-xdpi="1440"
   inkscape:export-ydpi="1440">
  <metadata
     id="metadata12">
    <rdf:RDF>
      <cc:Work
         rdf:about="">
        <dc:format>image/svg+xml</dc:format>
        <dc:type
           rdf:resource="http://purl.org/dc/dcmitype/StillImage" />
      </cc:Work>
    </rdf:RDF>
  </metadata>
  <defs
     id="defs10" />
  <sodipodi:namedview
     pagecolor="#ffffff"
     bordercolor="#666666"
     borderopacity="1"
     objecttolerance="10"
     gridtolerance="10"
     guidetolerance="10"
     inkscape:pageopacity="0"
     inkscape:pageshadow="2"
     inkscape:window-width="1280"
     inkscape:window-height="749"
     id="namedview8"
     showgrid="false"
     inkscape:snap-global="true"
     inkscape:snap-bbox="true"
     inkscape:bbox-paths="false"
     inkscape:bbox-nodes="true"
     inkscape:snap-bbox-edge-midpoints="false"
     inkscape:snap-bbox-midpoints="true"
     inkscape:snap-page="true"
     inkscape:zoom="8.90625"
     inkscape:cx="-3.1438596"
     inkscape:cy="27.508772"
     inkscape:window-x="0"
     inkscape:window-y="0"
     inkscape:window-maximized="1"
     inkscape:current-layer="svg2"
     inkscape:object-paths="true"
     inkscape:snap-others="true"
     inkscape:snap-center="true"
     inkscape:snap-smooth-nodes="true"
     inkscape:snap-nodes="false" />
  <path
     style="opacity:1;fill:#ffffff;fill-opacity:1;fill-rule:evenodd;stroke:#000000;stroke-width:2.4000001;stroke-linecap:round;stroke-linejoin:round;stroke-miterlimit:4;stroke-dasharray:none;stroke-dashoffset:0;stroke-opacity:1"
     d="M 6.7223351,8.4324325 C -2.3282719,18.079701 0.69976864,35.663962 12.767651,41.467249 c 6.268744,3.613828 13.87899,3.099633 20.004884,-0.166423 l 19.998281,19.998407 c 2.013255,2.013267 5.256446,2.013267 7.269701,0 l 1.258725,-1.258734 c 2.013255,-2.013267 2.013255,-5.256478 0,-7.269745 L 41.467383,32.93877 c 1.093931,-1.947906 1.867751,-4.095021 2.211025,-6.403295 C 46.741183,13.042232 33.955229,-0.68342032 20.279058,1.4162826 C 15.535258,1.9498133 11.002854,4.1401327 7.6363308,7.523714 C 7.3191365,7.8177355 7.0142899,8.1212299 6.7223326,8.4324296 Z m 8.0146329,6.1919655 c 4.97831,-5.3720842 14.791818,-3.87828 17.961603,2.714267 c 3.655213,6.34124 -0.66114,15.279771 -7.902365,16.355608 C 17.656861,35.313792 10.395597,28.549027 11.506284,21.312986 c 0.282196,-2.509808 1.440799,-4.907221 3.230684,-6.688588 z"
     id="rect4146"
     inkscape:connector-curvature="0" />
</svg>
